<svg width="360" height="360" viewBox="0 0 360 360" fill="none" xmlns="http://www.w3.org/2000/svg">
<rect width="360" height="360" fill="white"/>
<rect x="104" y="65" width="156" height="216" rx="6" stroke="black" stroke-width="5"/>
<path d="M121 92H200.5" stroke="black" stroke-width="5"/>
<path d="M121 114H241" stroke="black" stroke-width="5"/>
<path d="M121 128H241" stroke="black" stroke-width="5"/>
<path d="M121 142H241" stroke="black" stroke-width="5"/>
<path d="M121 156H241" stroke="black" stroke-width="5"/>
<path d="M121 170H241" stroke="black" stroke-width="5"/>
<path d="M121 184H241" stroke="black" stroke-width="5"/>
<path d="M121 198H241" stroke="black" stroke-width="5"/>
<path d="M121 212H241" stroke="black" stroke-width="5"/>
<path d="M121 226H241" stroke="black" stroke-width="5"/>
<path d="M121 240H241" stroke="black" stroke-width="5"/>
<path d="M213 259L241 259" stroke="black" stroke-width="5"/>
<path d="M246.431 257.024C246.477 257.25 246.751 257.342 246.924 257.188L255.071 249.964C255.183 249.865 255.205 249.699 255.123 249.574L251.313 243.786C251.237 243.67 251.092 243.622 250.961 243.668L244.44 246.013C244.3 246.064 244.218 246.21 244.248 246.356L246.431 257.024Z" fill="black"/>
<path d="M280.644 135.846C281.168 134.274 282.867 133.425 284.439 133.949L290.368 135.925C291.939 136.449 292.789 138.148 292.265 139.72L255.496 250.019C255.146 251.067 254.014 251.634 252.966 251.284L245.14 248.675C244.092 248.326 243.526 247.193 243.875 246.146L280.644 135.846Z" fill="#EB2424"/>
<path d="M281.484 171.633C281.321 172.014 281.497 172.455 281.878 172.618C282.259 172.781 282.7 172.605 282.863 172.224L281.484 171.633ZM289.235 153.549L281.484 171.633L282.863 172.224L290.614 154.14L289.235 153.549ZM288.328 151.53C289.163 151.808 289.582 152.74 289.235 153.549L290.614 154.14C291.306 152.525 290.47 150.663 288.802 150.107L288.328 151.53Z" fill="black"/>
<path d="M128.289 297.04C128.888 298.878 130.864 299.882 132.701 299.283C134.539 298.683 135.543 296.708 134.944 294.87L128.289 297.04ZM84.879 163.94L128.289 297.04L134.944 294.87L91.534 161.77L84.879 163.94Z" fill="#EB2424"/>
<ellipse cx="86.9662" cy="159.052" rx="13.5" ry="23" transform="rotate(-18.0633 86.9662 159.052)" fill="#EB2424"/>
</svg>
