<svg width="360" height="360" viewBox="0 0 360 360" fill="none" xmlns="http://www.w3.org/2000/svg">
<rect width="360" height="360" fill="white"/>
<rect x="70" y="85" width="190" height="190" rx="15" stroke="black" stroke-width="6" stroke-linejoin="bevel"/>
<path d="M110.195 183.078C113.616 179.765 118.795 180.099 121.763 183.824L167.17 240.824L165.556 242.386C159.605 248.149 150.595 247.567 145.434 241.088L109.373 195.82C106.405 192.096 106.774 186.39 110.195 183.078Z" fill="#EB2424"/>
<path d="M273.088 114.074C276.552 110.719 281.797 111.058 284.802 114.83C287.806 118.602 287.434 124.379 283.969 127.733L165.556 242.386C159.604 248.148 150.595 247.567 145.433 241.088L143.898 239.16L273.088 114.074Z" fill="#EB2424"/>
</svg>
