<svg width="360" height="360" viewBox="0 0 360 360" fill="none" xmlns="http://www.w3.org/2000/svg">
<rect width="360" height="360" fill="white"/>
<path d="M206.142 303.785C206.144 304.016 206.395 304.158 206.594 304.04L214.129 299.598C214.257 299.522 214.311 299.363 214.254 299.225L212.141 294.076C212.088 293.948 211.955 293.872 211.818 293.893L206.316 294.739C206.169 294.761 206.061 294.889 206.062 295.038L206.142 303.785Z" fill="black"/>
<path d="M97 256.5C97 215.907 129.907 183 170.5 183C211.093 183 244 215.907 244 256.5V273.349C244 284.754 234.754 294 223.349 294H117.651C106.246 294 97 284.754 97 273.349V256.5Z" fill="black"/>
<circle cx="170" cy="132" r="43" fill="black"/>
<rect x="163.208" y="83.7116" width="58.0871" height="4.29672" transform="rotate(24.1436 163.208 83.7116)" fill="black"/>
<rect x="187.298" y="54" width="38.19" height="39.1972" transform="rotate(24.1436 187.298 54)" fill="black"/>
<path d="M141 164C141 153.507 149.507 145 160 145H175.679C176.409 145 177 145.591 177 146.321C177 156.085 169.085 164 159.321 164H141Z" fill="#EB2424"/>
<path d="M172 146.321C172 145.591 172.591 145 173.321 145H183C193.493 145 202 153.507 202 164H189.679C179.915 164 172 156.085 172 146.321Z" fill="#EB2424"/>
<path d="M252.23 212.612C253.046 211.169 254.876 210.661 256.318 211.476L259.801 213.444C261.243 214.26 261.751 216.09 260.936 217.532L214.682 299.365C214.138 300.326 212.918 300.665 211.957 300.122L206.733 297.169C205.772 296.626 205.433 295.406 205.976 294.444L252.23 212.612Z" fill="#EB2424"/>
<path d="M247.466 240.861C247.233 241.204 247.321 241.67 247.664 241.903C248.006 242.136 248.473 242.048 248.706 241.705L247.466 240.861ZM256.503 227.583L247.466 240.861L248.706 241.705L257.743 228.427L256.503 227.583ZM256.139 226.02C256.694 226.334 256.862 227.056 256.503 227.583L257.743 228.427C258.596 227.174 258.196 225.46 256.877 224.714L256.139 226.02Z" fill="black"/>
</svg>
